<svg version="1" xmlns="http://www.w3.org/2000/svg" width="682.667" height="682.667" viewBox="0 0 512.000000 512.000000"><path d="M69.8 22.6c-4.1 2.1-5.8 6.3-5.8 13.9V43H40c-26.5 0-28.2.3-34.2 6.7C-.4 56.2 0 45.9 0 205.9c0 104.5.3 147.5 1.1 151.3 1.4 6.6 8.2 14 14.4 15.7 2.6.7 18.7 1.1 47.3 1.1H106v15.2c0 17.5.8 21.7 5.1 25.2 3 2.6 3.2 2.6 20.5 2.6H149v6.8c0 17.4 9.4 30.6 24.7 34.8 7.9 2.1 15.3 1.3 23.1-2.7 3.1-1.6 5.8-2.9 5.8-2.9.1 0 .4 3.5.6 7.7.8 18.1 13.8 30.7 31.8 30.8 6.5 0 8.4-.4 14.2-3.3 7.6-3.7 12-8.2 15.7-16.2 2.5-5.4 2.6-6 2.9-30.3l.3-24.7H352v24c0 27.7.7 31.2 8.6 39.9 6.7 7.4 13.8 10.6 23.9 10.6 6.7 0 8.9-.5 13.7-2.8 11.2-5.5 18.8-17.5 18.8-29.7 0-3.3.3-6 .6-6s1.8.9 3.3 1.9c1.4 1.1 5.3 2.7 8.5 3.6 14.6 4.2 30.8-3.1 37.7-17.1 1.9-3.9 2.5-6.8 2.7-14.7l.4-9.7H488c17.7 0 17.9 0 20.9-2.6l3.1-2.6v-54.6l-3.1-2.6c-3-2.6-3.2-2.6-20.9-2.6h-17.8l-.4-9.8c-.2-7.8-.8-10.7-2.7-14.6-6.9-14-23.1-21.3-37.7-17.1-3.2.9-7.1 2.5-8.5 3.6-1.5 1-3 1.9-3.3 1.9-.3 0-.6-2.7-.6-6 0-15.3-11.3-29.2-26.2-32.1l-5.8-1.2V168.3c0-118.6.3-112.2-5.8-118.6-5.4-5.7-8.8-6.7-23.2-6.7h-13l-.1-5.3c0-7.3-1.8-11.7-5.8-14.4-4-2.7-7.1-2.9-11.1-.8-4.2 2.2-6 6.3-6 14V43h-63v-6.5c0-7.7-1.8-11.8-6-14-4-2.1-7.1-1.9-11.1.8s-5.8 7.1-5.8 14.4L234 43h-62v-6.1c0-3.5-.7-7.5-1.6-9.4-1.5-3.3-6.5-6.5-9.9-6.5-3.4 0-8.4 3.2-9.9 6.5-.9 1.9-1.6 5.9-1.6 9.4V43H87l-.1-5.3c0-7.3-1.8-11.7-5.8-14.4-3.9-2.6-7.4-2.9-11.3-.7z"/></svg>